<svg width="272" height="80" viewBox="0 0 272 80" fill="none" xmlns="http://www.w3.org/2000/svg">
<g filter="url(#filter0_d_2_1402)">
<rect x="10" y="10" width="60" height="60" rx="12" fill="url(#paint0_linear_2_1402)" shape-rendering="crispEdges"/>
<path d="M40.027 30.4975C40.0607 30.3536 40.1225 30.2177 40.2087 30.0976C40.295 29.9776 40.4041 29.8757 40.5297 29.7978C40.6554 29.72 40.7951 29.6676 40.941 29.6438C41.0869 29.62 41.2361 29.6251 41.38 29.659C42.462 29.9153 43.4517 30.467 44.2388 31.2525C45.0258 32.0379 45.5795 33.0265 45.838 34.108C45.907 34.3984 45.8578 34.7043 45.7013 34.9585C45.5448 35.2127 45.2937 35.3942 45.0032 35.4632C44.7128 35.5323 44.4069 35.4831 44.1527 35.3265C43.8986 35.17 43.717 34.9189 43.648 34.6285C43.4861 33.9532 43.1403 33.3359 42.6488 32.8453C42.1574 32.3546 41.5396 32.0098 40.864 31.849C40.5739 31.7805 40.3228 31.5998 40.1659 31.3464C40.009 31.093 39.959 30.7877 40.027 30.4975Z" fill="#1E2022"/>
<path d="M29.5 35.5C29.5 32.7152 30.6062 30.0445 32.5754 28.0754C34.5445 26.1062 37.2152 25 40 25C42.7848 25 45.4555 26.1062 47.4246 28.0754C49.3938 30.0445 50.5 32.7152 50.5 35.5C50.5 38.5375 49.495 41.854 47.725 44.434C46.162 46.714 43.9105 48.5305 41.125 48.922V49.375C41.125 49.996 41.629 50.5 42.25 50.5H47.125C47.5682 50.5 48.0071 50.5873 48.4166 50.7569C48.826 50.9265 49.1981 51.1751 49.5115 51.4885C49.8249 51.8019 50.0735 52.174 50.2431 52.5834C50.4127 52.9929 50.5 53.4318 50.5 53.875V55.375C50.5 55.6734 50.3815 55.9595 50.1705 56.1705C49.9595 56.3815 49.6734 56.5 49.375 56.5C49.0766 56.5 48.7905 56.3815 48.5795 56.1705C48.3685 55.9595 48.25 55.6734 48.25 55.375V53.875C48.25 53.5766 48.1315 53.2905 47.9205 53.0795C47.7095 52.8685 47.4234 52.75 47.125 52.75H42.25C41.3549 52.75 40.4965 52.3944 39.8635 51.7615C39.2306 51.1285 38.875 50.2701 38.875 49.375V48.922C36.0895 48.5305 33.838 46.7125 32.275 44.434C30.505 41.854 29.5 38.5375 29.5 35.5ZM40 27.25C37.812 27.25 35.7135 28.1192 34.1664 29.6664C32.6192 31.2135 31.75 33.312 31.75 35.5C31.75 38.0875 32.62 40.96 34.129 43.1605C35.641 45.3625 37.6795 46.75 40 46.75C42.3205 46.75 44.359 45.3625 45.871 43.1605C47.38 40.9585 48.25 38.0875 48.25 35.5C48.25 33.312 47.3808 31.2135 45.8336 29.6664C44.2865 28.1192 42.188 27.25 40 27.25Z" fill="#1E2022"/>
</g>
<path d="M110.701 40.658C110.701 42.46 110.395 44.1203 109.783 45.639C109.182 47.1463 108.327 48.444 107.216 49.532C106.117 50.62 104.791 51.47 103.238 52.082C101.685 52.694 99.9627 53 98.07 53H88.584V28.333H98.07C99.9627 28.333 101.685 28.639 103.238 29.251C104.791 29.863 106.117 30.7187 107.216 31.818C108.327 32.906 109.182 34.2037 109.783 35.711C110.395 37.2183 110.701 38.8673 110.701 40.658ZM105.465 40.658C105.465 39.366 105.295 38.2043 104.955 37.173C104.615 36.1417 104.128 35.269 103.493 34.555C102.858 33.841 102.082 33.2913 101.164 32.906C100.257 32.5207 99.226 32.328 98.07 32.328H93.718V49.005H98.07C99.226 49.005 100.257 48.818 101.164 48.444C102.082 48.0587 102.858 47.509 103.493 46.795C104.128 46.0697 104.615 45.1913 104.955 44.16C105.295 43.1287 105.465 41.9613 105.465 40.658ZM119.301 38.363C119.856 37.3657 120.496 36.578 121.222 36C121.947 35.422 122.797 35.133 123.772 35.133C124.565 35.133 125.211 35.32 125.71 35.694L125.404 39.162C125.347 39.3887 125.256 39.5473 125.132 39.638C125.018 39.7173 124.86 39.757 124.656 39.757C124.474 39.757 124.214 39.7343 123.874 39.689C123.534 39.6323 123.216 39.604 122.922 39.604C122.491 39.604 122.106 39.6663 121.766 39.791C121.437 39.9157 121.142 40.0913 120.882 40.318C120.621 40.5447 120.383 40.8223 120.168 41.151C119.964 41.4797 119.771 41.8537 119.59 42.273V53H114.898V35.473H117.669C118.145 35.473 118.473 35.558 118.655 35.728C118.836 35.898 118.966 36.1927 119.046 36.612L119.301 38.363ZM139.794 42.171C139.794 41.6837 139.726 41.219 139.59 40.777C139.465 40.335 139.261 39.944 138.978 39.604C138.694 39.264 138.337 38.9977 137.907 38.805C137.476 38.601 136.96 38.499 136.36 38.499C135.238 38.499 134.359 38.8163 133.725 39.451C133.09 40.0857 132.676 40.9923 132.484 42.171H139.794ZM132.416 44.959C132.563 46.6023 133.028 47.8037 133.81 48.563C134.603 49.3223 135.634 49.702 136.904 49.702C137.55 49.702 138.105 49.6283 138.57 49.481C139.046 49.3223 139.459 49.1523 139.811 48.971C140.173 48.7783 140.496 48.6083 140.78 48.461C141.074 48.3023 141.363 48.223 141.647 48.223C142.009 48.223 142.293 48.359 142.497 48.631L143.857 50.331C143.358 50.909 142.808 51.3907 142.208 51.776C141.607 52.15 140.984 52.4503 140.338 52.677C139.692 52.8923 139.04 53.0397 138.383 53.119C137.725 53.2097 137.091 53.255 136.479 53.255C135.255 53.255 134.11 53.0567 133.045 52.66C131.991 52.252 131.067 51.657 130.274 50.875C129.492 50.0817 128.874 49.1013 128.421 47.934C127.967 46.7667 127.741 45.4123 127.741 43.871C127.741 42.681 127.933 41.559 128.319 40.505C128.715 39.451 129.282 38.533 130.019 37.751C130.755 36.969 131.651 36.3513 132.705 35.898C133.759 35.4333 134.949 35.201 136.275 35.201C137.397 35.201 138.428 35.3823 139.369 35.745C140.321 36.0963 141.137 36.612 141.817 37.292C142.508 37.972 143.041 38.8107 143.415 39.808C143.8 40.794 143.993 41.9217 143.993 43.191C143.993 43.5423 143.976 43.8313 143.942 44.058C143.908 44.2847 143.851 44.466 143.772 44.602C143.692 44.738 143.585 44.8343 143.449 44.891C143.313 44.9363 143.137 44.959 142.922 44.959H132.416ZM157.427 45.673C156.282 45.7297 155.33 45.8317 154.571 45.979C153.812 46.115 153.205 46.2963 152.752 46.523C152.31 46.7497 151.993 47.0103 151.8 47.305C151.619 47.5883 151.528 47.9 151.528 48.24C151.528 48.92 151.715 49.4017 152.089 49.685C152.474 49.9683 153.007 50.11 153.687 50.11C154.469 50.11 155.143 49.974 155.71 49.702C156.288 49.4187 156.86 48.9823 157.427 48.393V45.673ZM147.873 37.904C148.904 36.9747 150.043 36.2833 151.29 35.83C152.537 35.3653 153.885 35.133 155.336 35.133C156.379 35.133 157.308 35.303 158.124 35.643C158.951 35.983 159.648 36.459 160.215 37.071C160.793 37.6717 161.235 38.3913 161.541 39.23C161.847 40.0687 162 40.9867 162 41.984V53H159.858C159.416 53 159.076 52.9377 158.838 52.813C158.611 52.6883 158.424 52.4277 158.277 52.031L157.903 50.909C157.461 51.2943 157.03 51.6343 156.611 51.929C156.203 52.2237 155.778 52.473 155.336 52.677C154.894 52.8697 154.418 53.017 153.908 53.119C153.409 53.221 152.848 53.272 152.225 53.272C151.454 53.272 150.752 53.17 150.117 52.966C149.482 52.762 148.933 52.4617 148.468 52.065C148.015 51.657 147.663 51.1527 147.414 50.552C147.165 49.9513 147.04 49.26 147.04 48.478C147.04 47.832 147.204 47.186 147.533 46.54C147.862 45.894 148.423 45.3103 149.216 44.789C150.021 44.2563 151.086 43.82 152.412 43.48C153.749 43.1287 155.421 42.9303 157.427 42.885V41.984C157.427 40.8847 157.195 40.08 156.73 39.57C156.265 39.0487 155.597 38.788 154.724 38.788C154.078 38.788 153.54 38.8673 153.109 39.026C152.678 39.1733 152.299 39.3377 151.97 39.519C151.653 39.689 151.352 39.8533 151.069 40.012C150.786 40.1593 150.457 40.233 150.083 40.233C149.754 40.233 149.477 40.1537 149.25 39.995C149.035 39.825 148.853 39.6267 148.706 39.4L147.873 37.904ZM167.023 53V35.473H169.913C170.502 35.473 170.893 35.745 171.086 36.289L171.358 37.428C171.664 37.1107 171.975 36.816 172.293 36.544C172.621 36.272 172.973 36.0397 173.347 35.847C173.721 35.643 174.123 35.4843 174.554 35.371C174.996 35.2577 175.472 35.201 175.982 35.201C177.058 35.201 177.948 35.49 178.651 36.068C179.353 36.6347 179.886 37.394 180.249 38.346C180.532 37.7907 180.878 37.3147 181.286 36.918C181.705 36.51 182.158 36.1813 182.646 35.932C183.144 35.6827 183.666 35.5013 184.21 35.388C184.765 35.2633 185.32 35.201 185.876 35.201C186.862 35.201 187.734 35.3483 188.494 35.643C189.253 35.9377 189.888 36.374 190.398 36.952C190.919 37.5187 191.316 38.2157 191.588 39.043C191.86 39.8703 191.996 40.811 191.996 41.865V53H187.304V41.865C187.304 39.8137 186.425 38.788 184.669 38.788C184.272 38.788 183.904 38.856 183.564 38.992C183.235 39.1167 182.94 39.3093 182.68 39.57C182.43 39.8307 182.232 40.1537 182.085 40.539C181.949 40.9243 181.881 41.3663 181.881 41.865V53H177.189V41.865C177.189 40.7543 176.968 39.9667 176.526 39.502C176.095 39.026 175.455 38.788 174.605 38.788C174.061 38.788 173.545 38.9183 173.058 39.179C172.582 39.4283 172.134 39.7797 171.715 40.233V53H167.023ZM211.124 32.447H203.916V53H198.799V32.447H191.591V28.333H211.124V32.447ZM219.561 35.473V53H214.869V35.473H219.561ZM220.122 30.492C220.122 30.8887 220.042 31.257 219.884 31.597C219.725 31.937 219.51 32.2373 219.238 32.498C218.977 32.7587 218.665 32.9627 218.303 33.11C217.951 33.2573 217.572 33.331 217.164 33.331C216.778 33.331 216.41 33.2573 216.059 33.11C215.719 32.9627 215.418 32.7587 215.158 32.498C214.897 32.2373 214.687 31.937 214.529 31.597C214.381 31.257 214.308 30.8887 214.308 30.492C214.308 30.0953 214.381 29.727 214.529 29.387C214.687 29.0357 214.897 28.7297 215.158 28.469C215.418 28.2083 215.719 28.0043 216.059 27.857C216.41 27.7097 216.778 27.636 217.164 27.636C217.572 27.636 217.951 27.7097 218.303 27.857C218.665 28.0043 218.977 28.2083 219.238 28.469C219.51 28.7297 219.725 29.0357 219.884 29.387C220.042 29.727 220.122 30.0953 220.122 30.492ZM224.925 53V35.473H227.815C228.404 35.473 228.795 35.745 228.988 36.289L229.26 37.428C229.566 37.1107 229.877 36.816 230.195 36.544C230.523 36.272 230.875 36.0397 231.249 35.847C231.623 35.643 232.025 35.4843 232.456 35.371C232.898 35.2577 233.374 35.201 233.884 35.201C234.96 35.201 235.85 35.49 236.553 36.068C237.255 36.6347 237.788 37.394 238.151 38.346C238.434 37.7907 238.78 37.3147 239.188 36.918C239.607 36.51 240.06 36.1813 240.548 35.932C241.046 35.6827 241.568 35.5013 242.112 35.388C242.667 35.2633 243.222 35.201 243.778 35.201C244.764 35.201 245.636 35.3483 246.396 35.643C247.155 35.9377 247.79 36.374 248.3 36.952C248.821 37.5187 249.218 38.2157 249.49 39.043C249.762 39.8703 249.898 40.811 249.898 41.865V53H245.206V41.865C245.206 39.8137 244.327 38.788 242.571 38.788C242.174 38.788 241.806 38.856 241.466 38.992C241.137 39.1167 240.842 39.3093 240.582 39.57C240.332 39.8307 240.134 40.1537 239.987 40.539C239.851 40.9243 239.783 41.3663 239.783 41.865V53H235.091V41.865C235.091 40.7543 234.87 39.9667 234.428 39.502C233.997 39.026 233.357 38.788 232.507 38.788C231.963 38.788 231.447 38.9183 230.96 39.179C230.484 39.4283 230.036 39.7797 229.617 40.233V53H224.925ZM266.09 42.171C266.09 41.6837 266.022 41.219 265.886 40.777C265.762 40.335 265.558 39.944 265.274 39.604C264.991 39.264 264.634 38.9977 264.203 38.805C263.773 38.601 263.257 38.499 262.656 38.499C261.534 38.499 260.656 38.8163 260.021 39.451C259.387 40.0857 258.973 40.9923 258.78 42.171H266.09ZM258.712 44.959C258.86 46.6023 259.324 47.8037 260.106 48.563C260.9 49.3223 261.931 49.702 263.2 49.702C263.846 49.702 264.402 49.6283 264.866 49.481C265.342 49.3223 265.756 49.1523 266.107 48.971C266.47 48.7783 266.793 48.6083 267.076 48.461C267.371 48.3023 267.66 48.223 267.943 48.223C268.306 48.223 268.589 48.359 268.793 48.631L270.153 50.331C269.655 50.909 269.105 51.3907 268.504 51.776C267.904 52.15 267.28 52.4503 266.634 52.677C265.988 52.8923 265.337 53.0397 264.679 53.119C264.022 53.2097 263.387 53.255 262.775 53.255C261.551 53.255 260.407 53.0567 259.341 52.66C258.287 52.252 257.364 51.657 256.57 50.875C255.788 50.0817 255.171 49.1013 254.717 47.934C254.264 46.7667 254.037 45.4123 254.037 43.871C254.037 42.681 254.23 41.559 254.615 40.505C255.012 39.451 255.579 38.533 256.315 37.751C257.052 36.969 257.947 36.3513 259.001 35.898C260.055 35.4333 261.245 35.201 262.571 35.201C263.693 35.201 264.725 35.3823 265.665 35.745C266.617 36.0963 267.433 36.612 268.113 37.292C268.805 37.972 269.337 38.8107 269.711 39.808C270.097 40.794 270.289 41.9217 270.289 43.191C270.289 43.5423 270.272 43.8313 270.238 44.058C270.204 44.2847 270.148 44.466 270.068 44.602C269.989 44.738 269.881 44.8343 269.745 44.891C269.609 44.9363 269.434 44.959 269.218 44.959H258.712Z" fill="#1E2022"/>
<defs>
<filter id="filter0_d_2_1402" x="0" y="0" width="80" height="80" filterUnits="userSpaceOnUse" color-interpolation-filters="sRGB">
<feFlood flood-opacity="0" result="BackgroundImageFix"/>
<feColorMatrix in="SourceAlpha" type="matrix" values="0 0 0 0 0 0 0 0 0 0 0 0 0 0 0 0 0 0 127 0" result="hardAlpha"/>
<feOffset/>
<feGaussianBlur stdDeviation="5"/>
<feComposite in2="hardAlpha" operator="out"/>
<feColorMatrix type="matrix" values="0 0 0 0 0 0 0 0 0 0 0 0 0 0 0 0 0 0 0.1 0"/>
<feBlend mode="normal" in2="BackgroundImageFix" result="effect1_dropShadow_2_1402"/>
<feBlend mode="normal" in="SourceGraphic" in2="effect1_dropShadow_2_1402" result="shape"/>
</filter>
<linearGradient id="paint0_linear_2_1402" x1="30.5" y1="27" x2="70" y2="70" gradientUnits="userSpaceOnUse">
<stop stop-color="#FFF76A"/>
<stop offset="1" stop-color="#FFCE89"/>
</linearGradient>
</defs>
</svg>
