<svg width="292.000000" height="80.000000" viewBox="0 0 292 80" fill="none" xmlns="http://www.w3.org/2000/svg"
	xmlns:xlink="http://www.w3.org/1999/xlink">
	<desc>
		Created with Pixso.
	</desc>
	<defs>
		<filter id="filter_2_34_dd" x="0.000000" y="0.000000" width="80.000000" height="80.000000"
			filterUnits="userSpaceOnUse" color-interpolation-filters="sRGB">
			<feFlood flood-opacity="0" result="BackgroundImageFix" />
			<feColorMatrix in="SourceAlpha" type="matrix" values="0 0 0 0 0 0 0 0 0 0 0 0 0 0 0 0 0 0 127 0"
				result="hardAlpha" />
			<feOffset dx="0" dy="0" />
			<feGaussianBlur stdDeviation="3.33333" />
			<feComposite in2="hardAlpha" operator="out" k2="-1" k3="1" />
			<feColorMatrix type="matrix" values="0 0 0 0 0 0 0 0 0 0 0 0 0 0 0 0 0 0 0.1 0" />
			<feBlend mode="normal" in2="BackgroundImageFix" result="effect_dropShadow_1" />
			<feBlend mode="normal" in="SourceGraphic" in2="effect_dropShadow_1" result="shape" />
		</filter>
		<clipPath id="clip2_33">
			<rect id="icon_balloon" width="36.000000" height="36.000000" transform="translate(22.000000 22.000000)"
				fill="white" fill-opacity="0" />
		</clipPath>
		<linearGradient id="paint_linear_2_34_0" x1="30.500000" y1="27.000015" x2="70.000000" y2="70.000015"
			gradientUnits="userSpaceOnUse">
			<stop stop-color="#FFF76A" />
			<stop offset="1.000000" stop-color="#FFCE89" />
		</linearGradient>
	</defs>
	<g filter="url(#filter_2_34_dd)">
		<rect id="logo icon" rx="12.000000" width="60.000000" height="60.000000" transform="translate(10.000000 10.000000)"
			fill="url(#paint_linear_2_34_0)" fill-opacity="1.000000" />
		<rect id="icon_balloon" width="36.000000" height="36.000000" transform="translate(22.000000 22.000000)"
			fill="#FFFFFF" fill-opacity="0" />
		<g clip-path="url(#clip2_33)">
			<path id="Vector"
				d="M40.02 30.49C40.06 30.35 40.12 30.21 40.2 30.09C40.29 29.97 40.4 29.87 40.52 29.79C40.65 29.72 40.79 29.66 40.94 29.64C41.08 29.62 41.23 29.62 41.38 29.65C42.46 29.91 43.45 30.46 44.23 31.25C45.02 32.03 45.57 33.02 45.83 34.1C45.9 34.39 45.85 34.7 45.7 34.95C45.54 35.21 45.29 35.39 45 35.46C44.71 35.53 44.4 35.48 44.15 35.32C43.89 35.16 43.71 34.91 43.64 34.62C43.48 33.95 43.14 33.33 42.64 32.84C42.15 32.35 41.53 32 40.86 31.84C40.57 31.78 40.32 31.59 40.16 31.34C40 31.09 39.95 30.78 40.02 30.49Z"
				fill="#1E2022" fill-opacity="1.000000" fill-rule="nonzero" />
			<path id="Vector"
				d="M29.5 35.5C29.5 32.71 30.6 30.04 32.57 28.07C34.54 26.1 37.21 25 40 25C42.78 25 45.45 26.1 47.42 28.07C49.39 30.04 50.5 32.71 50.5 35.5C50.5 38.53 49.49 41.85 47.72 44.43C46.16 46.71 43.91 48.53 41.12 48.92L41.12 49.37C41.12 49.99 41.62 50.5 42.25 50.5L47.12 50.5C47.56 50.5 48 50.58 48.41 50.75C48.82 50.92 49.19 51.17 49.51 51.48C49.82 51.8 50.07 52.17 50.24 52.58C50.41 52.99 50.5 53.43 50.5 53.87L50.5 55.37C50.5 55.67 50.38 55.95 50.17 56.17C49.95 56.38 49.67 56.5 49.37 56.5C49.07 56.5 48.79 56.38 48.57 56.17C48.36 55.95 48.25 55.67 48.25 55.37L48.25 53.87C48.25 53.57 48.13 53.29 47.92 53.07C47.7 52.86 47.42 52.75 47.12 52.75L42.25 52.75C41.35 52.75 40.49 52.39 39.86 51.76C39.23 51.12 38.87 50.27 38.87 49.37L38.87 48.92C36.08 48.53 33.83 46.71 32.27 44.43C30.5 41.85 29.5 38.53 29.5 35.5ZM40 27.25C37.81 27.25 35.71 28.11 34.16 29.66C32.61 31.21 31.75 33.31 31.75 35.5C31.75 38.08 32.62 40.96 34.12 43.16C35.64 45.36 37.67 46.75 40 46.75C42.32 46.75 44.35 45.36 45.87 43.16C47.38 40.95 48.25 38.08 48.25 35.5C48.25 33.31 47.38 31.21 45.83 29.66C44.28 28.11 42.18 27.25 40 27.25Z"
				fill="#1E2022" fill-opacity="1.000000" fill-rule="nonzero" />
		</g>
	</g>
	<path id="logo name"
		d="M235.57 28.48C235.57 30.16 234.09 31.52 232.28 31.52C230.47 31.52 228.99 30.16 228.99 28.48C228.99 26.79 230.47 25.43 232.28 25.43C234.09 25.43 235.57 26.79 235.57 28.48ZM109.42 39.64C109.42 47.35 104.64 52 97.1 52L87.59 52L87.59 27.27L97.01 27.27C104.64 27.27 109.42 31.91 109.42 39.64ZM210.93 32.68L203.49 32.68L203.49 27.27L224.98 27.27L224.98 32.68L217.55 32.68L217.55 52L210.93 52L210.93 32.68ZM94.3 32.97L94.3 46.29L96.86 46.29C100.53 46.29 102.66 44.8 102.66 39.64C102.66 34.46 100.53 32.97 96.67 32.97L94.3 32.97ZM120.63 52L113.97 52L113.97 33.45L120.44 33.45L120.44 36.98L120.63 36.98C121.31 34.36 122.85 33.21 124.84 33.21C125.42 33.21 125.99 33.3 126.52 33.46L126.52 39.15C125.86 38.92 124.75 38.81 124.06 38.81C122.1 38.81 120.63 40.21 120.63 42.33L120.63 52ZM146.96 46.01C146.33 49.87 143.03 52.34 137.88 52.34C131.94 52.34 128.32 48.77 128.32 42.77C128.32 37.02 131.99 33.21 137.74 33.21C143.34 33.21 146.96 36.82 146.96 42.72L146.96 44.27L134.88 44.27L134.88 44.56C134.88 46.34 136.04 47.65 138.03 47.65C139.39 47.65 140.49 47.06 140.88 46.01L146.96 46.01ZM161.55 49.39C160.43 51.46 158.61 52.29 156.19 52.29C152.65 52.29 150.16 50.57 150.16 46.87C150.16 42.81 153.14 41.26 156.96 40.98C160.08 40.76 161.26 40.42 161.26 39.34L161.26 39.29C161.26 38.32 160.44 37.79 159.29 37.79C158.02 37.79 157.17 38.34 157.01 39.49L150.88 39.49C151.11 36.11 153.84 33.21 159.38 33.21C164.68 33.21 167.93 35.87 167.93 39.29L167.93 52L161.69 52L161.69 49.39L161.55 49.39ZM179.14 52L172.48 52L172.48 33.45L178.8 33.45L178.8 36.98L178.99 36.98C179.77 34.65 181.73 33.21 184.31 33.21C186.91 33.21 188.99 34.7 189.38 36.98L189.57 36.98C190.2 34.7 192.43 33.21 195.17 33.21C198.73 33.21 201.17 35.68 201.17 39.49L201.17 52L194.5 52L194.5 41.18C194.5 39.56 193.6 38.57 192.23 38.57C190.85 38.57 190.01 39.56 190.01 41.18L190.01 52L183.63 52L183.63 41.18C183.63 39.56 182.74 38.57 181.36 38.57C179.98 38.57 179.14 39.56 179.14 41.18L179.14 52ZM247.02 52L240.36 52L240.36 33.45L246.68 33.45L246.68 36.98L246.87 36.98C247.64 34.65 249.61 33.21 252.19 33.21C254.79 33.21 256.87 34.7 257.26 36.98L257.45 36.98C258.08 34.7 260.3 33.21 263.05 33.21C266.6 33.21 269.04 35.68 269.04 39.49L269.04 52L262.38 52L262.38 41.18C262.38 39.56 261.48 38.57 260.1 38.57C258.73 38.57 257.89 39.56 257.89 41.18L257.89 52L251.51 52L251.51 41.18C251.51 39.56 250.62 38.57 249.24 38.57C247.86 38.57 247.02 39.56 247.02 41.18L247.02 52ZM291.65 46.01C291.02 49.87 287.72 52.34 282.57 52.34C276.63 52.34 273.01 48.77 273.01 42.77C273.01 37.02 276.68 33.21 282.43 33.21C288.03 33.21 291.65 36.82 291.65 42.72L291.65 44.27L279.57 44.27L279.57 44.56C279.57 46.34 280.74 47.65 282.72 47.65C284.08 47.65 285.18 47.06 285.57 46.01L291.65 46.01ZM235.62 52L228.95 52L228.95 33.45L235.62 33.45L235.62 52ZM137.88 37.89C136.25 37.89 134.92 38.99 134.88 40.6L140.83 40.6C140.79 39 139.53 37.89 137.88 37.89ZM282.57 37.89C280.94 37.89 279.61 38.99 279.57 40.6L285.52 40.6C285.48 39 284.22 37.89 282.57 37.89ZM156.43 46.49C156.43 47.53 157.23 48.09 158.37 48.09C159.88 48.09 161.31 47.11 161.31 45.43L161.31 43.89C160.61 44.17 159.72 44.39 158.66 44.56C157.11 44.8 156.43 45.54 156.43 46.49Z"
		fill="#1E2022" fill-opacity="1.000000" fill-rule="evenodd" />
</svg>