<svg width="300.000000" height="294.000000" viewBox="0 0 300 294" fill="none" xmlns="http://www.w3.org/2000/svg" xmlns:xlink="http://www.w3.org/1999/xlink">
	<desc>
			Created with Pixso.
	</desc>
	<defs>
		<clipPath id="clip10_163">
			<rect width="300.000000" height="294.000000" fill="white" fill-opacity="0"/>
		</clipPath>
	</defs>
	<rect width="300.000000" height="294.000000" fill="#FFFFFF" fill-opacity="0"/>
	<g clip-path="url(#clip10_163)">
		<path d="M190.45 65.85L109.61 65.85C107.77 65.86 106 66.59 104.7 67.89C103.4 69.19 102.66 70.96 102.66 72.8L102.66 252.46L101.74 252.75L81.9 258.82C80.97 259.1 79.95 259.01 79.08 258.54C78.21 258.08 77.57 257.3 77.28 256.36L18.29 63.68C18 62.74 18.1 61.73 18.56 60.86C19.02 59.99 19.81 59.34 20.75 59.05L51.31 49.7L139.9 22.58L170.46 13.22C170.92 13.08 171.41 13.03 171.9 13.07C172.38 13.12 172.85 13.26 173.28 13.49C173.71 13.72 174.09 14.03 174.4 14.4C174.71 14.78 174.95 15.21 175.09 15.68L190.17 64.93L190.45 65.85Z" fill="#F2F2F2" fill-opacity="1.000000" fill-rule="nonzero"/>
		<path d="M208.09 64.93L189.92 5.57C189.61 4.58 189.12 3.66 188.46 2.86C187.8 2.06 186.99 1.4 186.08 0.92C185.17 0.43 184.17 0.13 183.14 0.03C182.11 -0.06 181.07 0.04 180.08 0.34L137.12 13.5L48.53 40.62L5.57 53.77C3.57 54.39 1.9 55.76 0.92 57.61C-0.06 59.45 -0.27 61.61 0.34 63.61L62.45 266.47C62.94 268.08 63.94 269.49 65.3 270.49C66.65 271.5 68.3 272.04 69.98 272.04C70.76 272.04 71.54 271.92 72.28 271.69L101.74 262.68L102.66 262.39L102.66 261.42L101.74 261.7L72.01 270.81C70.25 271.34 68.35 271.16 66.72 270.3C65.09 269.43 63.88 267.96 63.33 266.2L1.23 63.33C0.96 62.46 0.87 61.54 0.96 60.64C1.04 59.73 1.31 58.85 1.73 58.04C2.16 57.23 2.75 56.52 3.45 55.94C4.15 55.36 4.97 54.92 5.84 54.66L48.8 41.5L137.39 14.38L180.35 1.23C181.02 1.03 181.7 0.92 182.4 0.92C183.88 0.93 185.33 1.41 186.52 2.29C187.72 3.17 188.59 4.42 189.03 5.84L207.12 64.93L207.41 65.85L208.37 65.85L208.09 64.93Z" fill="#747576" fill-opacity="1.000000" fill-rule="nonzero"/>
		<path d="M56.82 59.2C55.93 59.2 55.06 58.92 54.34 58.39C53.63 57.86 53.1 57.11 52.83 56.26L46.87 36.77C46.71 36.24 46.65 35.69 46.7 35.15C46.76 34.6 46.92 34.07 47.17 33.59C47.43 33.11 47.78 32.68 48.2 32.33C48.62 31.98 49.11 31.72 49.63 31.56L131.13 6.61C132.19 6.29 133.33 6.4 134.31 6.91C135.28 7.43 136.02 8.32 136.34 9.37L142.31 28.86C142.63 29.92 142.52 31.06 142 32.04C141.48 33.02 140.6 33.75 139.54 34.07L58.04 59.02C57.65 59.14 57.24 59.2 56.82 59.2Z" fill="#FFE55E" fill-opacity="1.000000" fill-rule="nonzero"/>
		<path d="M97.34 11.55C97.34 16.67 93.2 20.82 88.08 20.82C82.96 20.82 78.81 16.67 78.81 11.55C78.81 6.44 82.96 2.29 88.08 2.29C93.2 2.29 97.34 6.44 97.34 11.55Z" fill="#FFE55E" fill-opacity="1.000000" fill-rule="evenodd"/>
		<path d="M93.95 11.55C93.95 14.79 91.32 17.42 88.08 17.42C84.84 17.42 82.21 14.79 82.21 11.55C82.21 8.31 84.84 5.69 88.08 5.69C91.32 5.69 93.95 8.31 93.95 11.55Z" fill="#FFFFFF" fill-opacity="1.000000" fill-rule="evenodd"/>
		<path d="M279.15 269.67L122.58 269.67C121.54 269.67 120.54 269.26 119.8 268.52C119.06 267.78 118.65 266.78 118.64 265.73L118.64 78.13C118.65 77.08 119.06 76.08 119.8 75.35C120.54 74.61 121.54 74.19 122.58 74.19L279.15 74.19C280.19 74.19 281.2 74.61 281.93 75.35C282.67 76.08 283.09 77.08 283.09 78.13L283.09 265.73C283.09 266.78 282.67 267.78 281.93 268.52C281.2 269.26 280.19 269.67 279.15 269.67Z" fill="#E6E6E6" fill-opacity="1.000000" fill-rule="nonzero"/>
		<path d="M207.12 64.93L109.61 64.93C107.52 64.93 105.52 65.76 104.05 67.24C102.57 68.71 101.74 70.71 101.74 72.8L101.74 261.7L102.66 261.42L102.66 72.8C102.66 70.96 103.4 69.19 104.7 67.89C106 66.59 107.77 65.86 109.61 65.85L207.41 65.85L207.12 64.93ZM292.12 64.93L109.61 64.93C107.52 64.93 105.52 65.76 104.05 67.24C102.57 68.71 101.74 70.71 101.74 72.8L101.74 284.96C101.74 287.04 102.57 289.05 104.05 290.52C105.52 292 107.52 292.83 109.61 292.83L292.12 292.83C294.21 292.83 296.21 292 297.69 290.52C299.16 289.05 299.99 287.04 300 284.96L300 72.8C299.99 70.71 299.16 68.71 297.69 67.24C296.21 65.76 294.21 64.93 292.12 64.93ZM299.07 284.96C299.07 286.8 298.33 288.57 297.03 289.87C295.73 291.17 293.96 291.9 292.12 291.91L109.61 291.91C107.77 291.9 106 291.17 104.7 289.87C103.4 288.57 102.66 286.8 102.66 284.96L102.66 72.8C102.66 70.96 103.4 69.19 104.7 67.89C106 66.59 107.77 65.86 109.61 65.85L292.12 65.85C293.96 65.86 295.73 66.59 297.03 67.89C298.33 69.19 299.07 70.96 299.07 72.8L299.07 284.96Z" fill="#747576" fill-opacity="1.000000" fill-rule="nonzero"/>
		<path d="M243.48 85.31L158.25 85.31C157.14 85.31 156.08 84.87 155.3 84.09C154.52 83.3 154.08 82.24 154.08 81.14L154.08 60.76C154.08 59.65 154.52 58.59 155.3 57.81C156.08 57.03 157.14 56.59 158.25 56.59L243.48 56.59C244.59 56.59 245.65 57.03 246.43 57.81C247.21 58.59 247.65 59.65 247.65 60.76L247.65 81.14C247.65 82.24 247.21 83.3 246.43 84.09C245.65 84.87 244.59 85.31 243.48 85.31Z" fill="#FFE55E" fill-opacity="1.000000" fill-rule="nonzero"/>
		<path d="M210.13 48.71C210.13 53.83 205.98 57.98 200.87 57.98C195.75 57.98 191.6 53.83 191.6 48.71C191.6 43.6 195.75 39.45 200.87 39.45C205.98 39.45 210.13 43.6 210.13 48.71Z" fill="#FFE55E" fill-opacity="1.000000" fill-rule="evenodd"/>
		<path d="M206.51 48.71C206.51 51.83 203.98 54.36 200.87 54.36C197.75 54.36 195.22 51.83 195.22 48.71C195.22 45.6 197.75 43.07 200.87 43.07C203.98 43.07 206.51 45.6 206.51 48.71Z" fill="#FFFFFF" fill-opacity="1.000000" fill-rule="evenodd"/>
	</g>
</svg>
