<svg width="200.000000" height="220.000000" viewBox="0 0 200 220" fill="none" xmlns="http://www.w3.org/2000/svg" xmlns:xlink="http://www.w3.org/1999/xlink">
	<desc>
			Created with Pixso.
	</desc>
	<defs>
		<clipPath id="clip5067_1151">
			<rect id="undraw_taken_re_yn20 1" rx="-0.500000" width="199.000000" height="219.000000" transform="translate(0.500000 0.500000)" fill="white" fill-opacity="0"/>
		</clipPath>
	</defs>
	<rect id="undraw_taken_re_yn20 1" rx="-0.500000" width="199.000000" height="219.000000" transform="translate(0.500000 0.500000)" fill="#FFFFFF" fill-opacity="0"/>
	<g clip-path="url(#clip5067_1151)">
		<path id="Vector" d="M138.87 44.54C125.01 42.33 109.22 41.15 92.78 41.15C77.73 41.15 63.23 42.14 50.26 44C50.26 43.8 50.26 43.6 50.27 43.4C50.62 31.84 55.47 20.86 63.8 12.83C72.13 4.8 83.26 0.34 94.83 0.41C106.41 0.48 117.49 5.07 125.72 13.21C133.95 21.34 138.67 32.37 138.87 43.94C138.87 44.15 138.87 44.35 138.87 44.54Z" fill="#FFE55E" fill-opacity="1.000000" fill-rule="nonzero"/>
		<g opacity="0.100000">
			<path id="Vector" d="M100.38 0.39C94.22 -0.44 87.96 0.03 82 1.78C76.04 3.52 70.52 6.5 65.78 10.51C61.04 14.53 57.2 19.49 54.51 25.09C51.81 30.68 50.33 36.78 50.14 42.99C50.13 43.19 50.13 43.39 50.12 43.59C53.98 43.03 57.97 42.56 62.07 42.16C62.57 31.82 66.68 21.98 73.67 14.35C80.67 6.72 90.12 1.79 100.38 0.39Z" fill="#FFFFFF" fill-opacity="1.000000" fill-rule="nonzero"/>
		</g>
		<path id="Vector" d="M158.26 48.06C151.88 46.33 145.4 44.96 138.87 43.94C128.16 42.28 117.36 41.25 106.53 40.84C102.02 40.65 97.42 40.56 92.78 40.56C89.1 40.56 85.45 40.62 81.84 40.73C71.28 41.05 60.74 41.94 50.27 43.4C42.53 44.47 34.85 46.02 27.3 48.06C9.69 52.93 0 59.45 0 66.43C0 73.41 9.69 79.93 27.3 84.8C39.68 88.22 54.95 90.56 71.59 91.63C78.45 92.08 85.55 92.3 92.78 92.3C100.03 92.3 107.15 92.07 114.04 91.63C129.18 90.65 143.19 88.62 154.91 85.68C154.97 85.66 155.03 85.65 155.09 85.63C155.88 85.43 156.66 85.23 157.43 85.02C157.71 84.95 157.98 84.87 158.26 84.8C158.27 84.79 158.29 84.79 158.3 84.78C158.57 84.71 158.83 84.64 159.08 84.57C159.6 84.42 160.11 84.27 160.62 84.12C160.64 84.11 160.66 84.11 160.68 84.1C161.12 83.97 161.55 83.84 161.97 83.71C162.32 83.6 162.66 83.49 163.01 83.38C163.26 83.3 163.5 83.22 163.75 83.14C163.93 83.08 164.1 83.03 164.27 82.97C164.51 82.89 164.74 82.81 164.98 82.73C165.07 82.7 165.17 82.66 165.27 82.63C165.49 82.55 165.71 82.48 165.92 82.4C166.16 82.32 166.39 82.23 166.63 82.15C166.82 82.08 167.01 82.01 167.2 81.93C167.36 81.87 167.52 81.81 167.68 81.75C168.12 81.59 168.55 81.42 168.97 81.25C169.18 81.17 169.39 81.08 169.6 81C169.8 80.91 170.01 80.83 170.22 80.74C170.55 80.6 170.88 80.46 171.2 80.32C171.35 80.25 171.51 80.18 171.66 80.12C171.78 80.06 171.89 80.01 172.01 79.96C172.09 79.92 172.17 79.89 172.25 79.85C172.55 79.71 172.85 79.57 173.14 79.43C174.26 78.9 175.3 78.35 176.27 77.79C182.35 74.31 185.56 70.44 185.56 66.43C185.56 59.45 175.87 52.93 158.26 48.06ZM158.1 84.23C145.7 87.66 130.39 89.99 113.71 91.05C106.93 91.48 99.91 91.71 92.78 91.71C85.67 91.71 78.68 91.49 71.92 91.06C55.21 90 39.88 87.66 27.46 84.23C10.13 79.43 0.59 73.11 0.59 66.43C0.59 65.84 0.66 65.25 0.81 64.68C2.33 58.65 11.66 53 27.46 48.63C34.96 46.61 42.57 45.07 50.26 44C60.79 42.53 71.39 41.63 82.02 41.32C85.56 41.21 89.15 41.15 92.78 41.15C97.36 41.15 101.89 41.24 106.35 41.42C117.24 41.83 128.1 42.87 138.87 44.54C145.35 45.55 151.77 46.92 158.1 48.63C173.9 53 183.23 58.64 184.75 64.67C184.89 65.25 184.97 65.84 184.97 66.43C184.97 73.11 175.43 79.43 158.1 84.23Z" fill="#747576" fill-opacity="1.000000" fill-rule="nonzero"/>
		<path id="Vector" d="M185.39 66.7C185.39 70.67 182.12 74.43 176.27 77.79C175.3 78.35 174.25 78.9 173.14 79.43C172.85 79.57 172.55 79.71 172.25 79.85C172.17 79.89 172.09 79.92 172.01 79.96C171.89 80.01 171.78 80.06 171.66 80.12C171.51 80.18 171.35 80.25 171.2 80.32C170.88 80.46 170.55 80.6 170.22 80.74C170.01 80.83 169.8 80.91 169.6 81C169.39 81.08 169.18 81.17 168.97 81.25C168.55 81.42 168.12 81.59 167.68 81.75C167.52 81.81 167.36 81.87 167.2 81.93C167.01 82.01 166.82 82.08 166.63 82.15C166.39 82.23 166.16 82.32 165.92 82.4C165.71 82.48 165.49 82.55 165.27 82.63C165.17 82.66 165.07 82.7 164.98 82.73C164.74 82.81 164.51 82.89 164.27 82.97C164.1 83.03 163.93 83.08 163.75 83.14C163.5 83.22 163.26 83.3 163.01 83.38C162.66 83.49 162.32 83.6 161.97 83.71C161.55 83.84 161.12 83.97 160.68 84.1C160.66 84.11 160.64 84.11 160.62 84.12C160.11 84.27 159.6 84.42 159.08 84.57C158.83 84.64 158.57 84.71 158.3 84.78C158.29 84.79 158.27 84.79 158.26 84.8C157.98 84.87 157.71 84.95 157.43 85.02C156.67 85.23 155.88 85.43 155.09 85.63C155.03 85.65 154.97 85.66 154.91 85.68C143.5 88.53 129.51 90.6 114.03 91.61C107.24 92.04 100.17 92.27 92.91 92.27C85.58 92.27 78.44 92.04 71.61 91.59C30.8 88.93 0.42 78.8 0.42 66.7C0.42 65.96 0.54 65.23 0.75 64.53C0.77 64.58 0.79 64.63 0.81 64.68C5.05 75.82 35.17 84.83 74.25 87.03C80.23 87.37 86.43 87.54 92.78 87.54C99.15 87.54 105.38 87.36 111.39 87.03C150.43 84.82 180.52 75.81 184.75 64.67C184.82 64.49 184.88 64.31 184.93 64.14C185.23 64.96 185.39 65.82 185.39 66.7Z" fill="#747576" fill-opacity="1.000000" fill-rule="nonzero"/>
		<path id="Vector" d="M27.26 63.5C22.31 63.5 17.05 62.43 17.05 60.46C17.05 58.49 22.31 57.42 27.26 57.42C32.21 57.42 37.47 58.49 37.47 60.46C37.47 62.43 32.21 63.5 27.26 63.5ZM27.26 58.02C21.59 58.02 17.64 59.3 17.64 60.46C17.64 61.62 21.59 62.9 27.26 62.9C32.92 62.9 36.87 61.62 36.87 60.46C36.87 59.3 32.92 58.02 27.26 58.02Z" fill="#747576" fill-opacity="1.000000" fill-rule="nonzero"/>
		<path id="Vector" d="M48.37 77.48C43.42 77.48 38.16 76.41 38.16 74.44C38.16 72.46 43.42 71.4 48.37 71.4C53.32 71.4 58.58 72.46 58.58 74.44C58.58 76.41 53.32 77.48 48.37 77.48ZM48.37 71.99C42.7 71.99 38.76 73.28 38.76 74.44C38.76 75.59 42.7 76.88 48.37 76.88C54.04 76.88 57.98 75.59 57.98 74.44C57.98 73.28 54.04 71.99 48.37 71.99Z" fill="#747576" fill-opacity="1.000000" fill-rule="nonzero"/>
		<path id="Vector" d="M158.11 63.5C153.16 63.5 147.89 62.43 147.89 60.46C147.89 58.49 153.16 57.42 158.11 57.42C163.05 57.42 168.31 58.49 168.31 60.46C168.31 62.43 163.05 63.5 158.11 63.5ZM158.11 58.02C152.44 58.02 148.49 59.3 148.49 60.46C148.49 61.62 152.44 62.9 158.11 62.9C163.77 62.9 167.72 61.62 167.72 60.46C167.72 59.3 163.77 58.02 158.11 58.02Z" fill="#747576" fill-opacity="1.000000" fill-rule="nonzero"/>
		<path id="Vector" d="M136.99 77.48C132.04 77.48 126.78 76.41 126.78 74.44C126.78 72.46 132.04 71.4 136.99 71.4C141.94 71.4 147.2 72.46 147.2 74.44C147.2 76.41 141.94 77.48 136.99 77.48ZM136.99 71.99C131.33 71.99 127.38 73.28 127.38 74.44C127.38 75.59 131.33 76.88 136.99 76.88C142.66 76.88 146.61 75.59 146.61 74.44C146.61 73.28 142.66 71.99 136.99 71.99Z" fill="#747576" fill-opacity="1.000000" fill-rule="nonzero"/>
		<path id="Vector" d="M92.68 84.02C87.73 84.02 82.47 82.95 82.47 80.98C82.47 79.01 87.73 77.94 92.68 77.94C97.63 77.94 102.89 79.01 102.89 80.98C102.89 82.95 97.63 84.02 92.68 84.02ZM92.68 78.54C87.01 78.54 83.07 79.82 83.07 80.98C83.07 82.14 87.01 83.42 92.68 83.42C98.35 83.42 102.3 82.14 102.3 80.98C102.3 79.82 98.35 78.54 92.68 78.54Z" fill="#747576" fill-opacity="1.000000" fill-rule="nonzero"/>
		<path id="Vector" d="M112.7 134.03C112.7 140.93 107.11 146.52 100.21 146.52C93.31 146.52 87.71 140.93 87.71 134.03C87.71 127.13 93.31 121.53 100.21 121.53C107.11 121.53 112.7 127.13 112.7 134.03Z" fill="#494B4C" fill-opacity="1.000000" fill-rule="evenodd"/>
		<path id="Vector" d="M89.38 145.28L95.46 142.24L97.16 145.63L91.07 148.67L89.38 145.28Z" fill="#494B4C" fill-opacity="1.000000" fill-rule="evenodd"/>
		<path id="Vector" d="M89.89 145.6C91.35 146.56 92.24 147.78 91.88 148.33C91.52 148.88 90.04 148.54 88.58 147.58C87.12 146.62 86.23 145.39 86.6 144.85C86.96 144.3 88.43 144.64 89.89 145.6Z" fill="#494B4C" fill-opacity="1.000000" fill-rule="evenodd"/>
		<path id="Vector" d="M103.26 145.63L104.96 142.24L111.04 145.28L109.34 148.67L103.26 145.63Z" fill="#494B4C" fill-opacity="1.000000" fill-rule="evenodd"/>
		<path id="Vector" d="M113.82 144.85C114.18 145.39 113.29 146.62 111.83 147.58C110.37 148.54 108.9 148.88 108.54 148.33C108.18 147.78 109.07 146.56 110.53 145.6C111.98 144.64 113.46 144.3 113.82 144.85Z" fill="#494B4C" fill-opacity="1.000000" fill-rule="evenodd"/>
		<path id="Vector" d="M103.6 130.97C103.6 133.33 101.69 135.24 99.33 135.24C96.97 135.24 95.06 133.33 95.06 130.97C95.06 128.61 96.97 126.7 99.33 126.7C101.69 126.7 103.6 128.61 103.6 130.97Z" fill="#FFFFFF" fill-opacity="1.000000" fill-rule="evenodd"/>
		<path id="Vector" d="M100.36 128.14C100.92 128.7 100.92 129.6 100.37 130.15C99.82 130.71 98.92 130.7 98.36 130.14C97.8 129.59 97.8 128.69 98.35 128.13C98.91 127.58 99.81 127.58 100.36 128.14Z" fill="#747576" fill-opacity="1.000000" fill-rule="evenodd"/>
		<path id="Vector" d="M110.06 120.44C110.25 115.81 106.26 111.89 101.16 111.69C96.05 111.48 91.76 115.06 91.57 119.68C91.39 124.31 94.94 125.36 100.04 125.57C105.15 125.78 109.88 125.06 110.06 120.44Z" fill="#FFE55E" fill-opacity="1.000000" fill-rule="nonzero"/>
		<path id="Vector" d="M114.68 134.55C116.93 137.17 118.09 139.86 117.26 140.57C116.44 141.28 113.96 139.72 111.71 137.11C109.46 134.49 108.3 131.8 109.13 131.09C109.95 130.38 112.44 131.93 114.68 134.55Z" fill="#494B4C" fill-opacity="1.000000" fill-rule="evenodd"/>
		<path id="Vector" d="M91.32 131.09C92.14 131.8 90.99 134.49 88.74 137.11C86.49 139.72 84.01 141.28 83.18 140.57C82.36 139.86 83.52 137.17 85.77 134.55C88.01 131.93 90.5 130.38 91.32 131.09Z" fill="#494B4C" fill-opacity="1.000000" fill-rule="evenodd"/>
		<path id="Vector" d="M103.64 138.95C103.77 139.69 103.61 140.46 103.18 141.08C102.75 141.7 102.09 142.13 101.35 142.26C100.61 142.4 99.84 142.23 99.22 141.8C98.6 141.37 98.17 140.71 98.04 139.97L98.04 139.97C97.76 138.42 98.95 137.87 100.5 137.59C102.05 137.31 103.36 137.4 103.64 138.95Z" fill="#FFFFFF" fill-opacity="1.000000" fill-rule="nonzero"/>
		<path id="Vector" d="M79.1 147.32C78.94 147.32 78.79 147.25 78.68 147.14C78.57 147.03 78.5 146.88 78.5 146.72L78.5 111.63C78.5 111.47 78.57 111.32 78.68 111.21C78.79 111.1 78.94 111.04 79.1 111.04C79.26 111.04 79.41 111.1 79.52 111.21C79.63 111.32 79.69 111.47 79.69 111.63L79.69 146.72C79.69 146.88 79.63 147.03 79.52 147.14C79.41 147.25 79.26 147.32 79.1 147.32Z" fill="#CCCCCC" fill-opacity="1.000000" fill-rule="nonzero"/>
		<path id="Vector" d="M70.18 178.84C70.02 178.84 69.87 178.78 69.76 178.67C69.65 178.55 69.58 178.4 69.58 178.25L69.58 152.67C69.58 152.51 69.65 152.36 69.76 152.25C69.87 152.14 70.02 152.08 70.18 152.08C70.34 152.08 70.49 152.14 70.6 152.25C70.71 152.36 70.77 152.51 70.77 152.67L70.77 178.25C70.77 178.4 70.71 178.55 70.6 178.67C70.49 178.78 70.34 178.84 70.18 178.84Z" fill="#CCCCCC" fill-opacity="1.000000" fill-rule="nonzero"/>
		<path id="Vector" d="M93.08 157.73C92.92 157.73 92.77 157.66 92.66 157.55C92.54 157.44 92.48 157.29 92.48 157.13L92.48 122.04C92.48 121.88 92.54 121.73 92.66 121.62C92.77 121.51 92.92 121.45 93.08 121.45C93.23 121.45 93.39 121.51 93.5 121.62C93.61 121.73 93.67 121.88 93.67 122.04L93.67 157.13C93.67 157.29 93.61 157.44 93.5 157.55C93.39 157.66 93.23 157.73 93.08 157.73Z" fill="#CCCCCC" fill-opacity="1.000000" fill-rule="nonzero"/>
		<path id="Vector" d="M84.45 183C84.29 183 84.14 182.94 84.03 182.83C83.92 182.72 83.86 182.57 83.86 182.41L83.86 168.13C83.86 167.98 83.92 167.83 84.03 167.71C84.14 167.6 84.29 167.54 84.45 167.54C84.61 167.54 84.76 167.6 84.87 167.71C84.98 167.83 85.05 167.98 85.05 168.13L85.05 182.41C85.05 182.57 84.98 182.72 84.87 182.83C84.76 182.94 84.61 183 84.45 183Z" fill="#CCCCCC" fill-opacity="1.000000" fill-rule="nonzero"/>
		<path id="Vector" d="M96.64 109.85C96.49 109.85 96.34 109.78 96.22 109.67C96.11 109.56 96.05 109.41 96.05 109.25L96.05 94.98C96.05 94.82 96.11 94.67 96.22 94.56C96.34 94.45 96.49 94.38 96.64 94.38C96.8 94.38 96.95 94.45 97.07 94.56C97.18 94.67 97.24 94.82 97.24 94.98L97.24 109.25C97.24 109.41 97.18 109.56 97.07 109.67C96.95 109.78 96.8 109.85 96.64 109.85Z" fill="#CCCCCC" fill-opacity="1.000000" fill-rule="nonzero"/>
		<path id="Vector" d="M66.91 116.09C66.75 116.09 66.6 116.03 66.49 115.92C66.37 115.81 66.31 115.66 66.31 115.5L66.31 101.22C66.31 101.07 66.37 100.91 66.49 100.8C66.6 100.69 66.75 100.63 66.91 100.63C67.06 100.63 67.22 100.69 67.33 100.8C67.44 100.91 67.5 101.07 67.5 101.22L67.5 115.5C67.5 115.66 67.44 115.81 67.33 115.92C67.22 116.03 67.06 116.09 66.91 116.09Z" fill="#CCCCCC" fill-opacity="1.000000" fill-rule="nonzero"/>
		<path id="Vector" d="M118.65 117.58C118.49 117.58 118.34 117.52 118.23 117.4C118.12 117.29 118.06 117.14 118.06 116.98L118.06 102.71C118.06 102.55 118.12 102.4 118.23 102.29C118.34 102.18 118.49 102.12 118.65 102.12C118.81 102.12 118.96 102.18 119.07 102.29C119.18 102.4 119.25 102.55 119.25 102.71L119.25 116.98C119.25 117.14 119.18 117.29 119.07 117.4C118.96 117.52 118.81 117.58 118.65 117.58Z" fill="#CCCCCC" fill-opacity="1.000000" fill-rule="nonzero"/>
		<path id="Vector" d="M117.46 162.19C117.3 162.19 117.15 162.12 117.04 162.01C116.93 161.9 116.87 161.75 116.87 161.59L116.87 144.34C116.87 144.19 116.93 144.03 117.04 143.92C117.15 143.81 117.3 143.75 117.46 143.75C117.62 143.75 117.77 143.81 117.88 143.92C117.99 144.03 118.06 144.19 118.06 144.34L118.06 161.59C118.06 161.75 117.99 161.9 117.88 162.01C117.77 162.12 117.62 162.19 117.46 162.19Z" fill="#CCCCCC" fill-opacity="1.000000" fill-rule="nonzero"/>
		<path id="Vector" d="M105.57 177.35C105.41 177.35 105.26 177.29 105.15 177.18C105.03 177.07 104.97 176.92 104.97 176.76L104.97 151.18C104.97 151.03 105.03 150.87 105.15 150.76C105.26 150.65 105.41 150.59 105.57 150.59C105.72 150.59 105.88 150.65 105.99 150.76C106.1 150.87 106.16 151.03 106.16 151.18L106.16 176.76C106.16 176.92 106.1 177.07 105.99 177.18C105.88 177.29 105.72 177.35 105.57 177.35Z" fill="#CCCCCC" fill-opacity="1.000000" fill-rule="nonzero"/>
		<path id="Vector" d="M107.95 133.64C107.79 133.64 107.64 133.58 107.53 133.46C107.41 133.35 107.35 133.2 107.35 133.04L107.35 97.95C107.35 97.79 107.41 97.64 107.53 97.53C107.64 97.42 107.79 97.36 107.95 97.36C108.1 97.36 108.25 97.42 108.37 97.53C108.48 97.64 108.54 97.79 108.54 97.95L108.54 133.04C108.54 133.2 108.48 133.35 108.37 133.46C108.25 133.58 108.1 133.64 107.95 133.64Z" fill="#CCCCCC" fill-opacity="1.000000" fill-rule="nonzero"/>
		<path id="Vector" d="M178.29 202.11C180.56 204.82 181.71 207.6 180.86 208.31C180.01 209.02 177.48 207.4 175.21 204.69C172.94 201.98 171.79 199.2 172.64 198.49C173.49 197.78 176.02 199.4 178.29 202.11Z" fill="#494B4C" fill-opacity="1.000000" fill-rule="evenodd"/>
		<path id="Vector" d="M167.18 189.03C173.89 191.26 177.52 198.52 175.28 205.23C173.04 211.94 165.79 215.56 159.08 213.33C152.37 211.09 148.74 203.84 150.98 197.13C153.22 190.42 160.47 186.79 167.18 189.03Z" fill="#494B4C" fill-opacity="1.000000" fill-rule="evenodd"/>
		<path id="Vector" d="M164.66 211.23L168.55 211.23L168.55 218.2L164.66 218.2L164.66 211.23Z" fill="#494B4C" fill-opacity="1.000000" fill-rule="evenodd"/>
		<path id="Vector" d="M156.88 211.23L160.77 211.23L160.77 218.2L156.88 218.2L156.88 211.23Z" fill="#494B4C" fill-opacity="1.000000" fill-rule="evenodd"/>
		<path id="Vector" d="M168.55 218.28C168.55 218.95 167.1 219.5 165.31 219.5C163.52 219.5 162.07 218.95 162.07 218.28C162.07 217.61 163.52 217.06 165.31 217.06C167.1 217.06 168.55 217.61 168.55 218.28Z" fill="#494B4C" fill-opacity="1.000000" fill-rule="evenodd"/>
		<path id="Vector" d="M160.77 218.12C160.77 218.79 159.32 219.33 157.53 219.33C155.74 219.33 154.28 218.79 154.28 218.12C154.28 217.45 155.74 216.9 157.53 216.9C159.32 216.9 160.77 217.45 160.77 218.12Z" fill="#494B4C" fill-opacity="1.000000" fill-rule="evenodd"/>
		<path id="Vector" d="M159.11 185.08C160.25 180.47 165.3 177.76 170.38 179.02C175.47 180.29 178.66 185.04 177.52 189.65C176.37 194.25 172.58 194.27 167.5 193.01C162.41 191.74 157.96 189.68 159.11 185.08Z" fill="#CCCCCC" fill-opacity="1.000000" fill-rule="nonzero"/>
		<path id="Vector" d="M149.57 193.42C152.76 194.93 154.97 196.97 154.49 197.98C154.01 198.98 151.04 198.57 147.84 197.05C144.65 195.53 142.44 193.49 142.92 192.49C143.39 191.49 146.37 191.9 149.57 193.42Z" fill="#494B4C" fill-opacity="1.000000" fill-rule="evenodd"/>
		<path id="Vector" d="M165.48 198.47C165.48 200.83 163.57 202.74 161.21 202.74C158.86 202.74 156.94 200.83 156.94 198.47C156.94 196.12 158.86 194.2 161.21 194.2C163.57 194.2 165.48 196.12 165.48 198.47Z" fill="#FFFFFF" fill-opacity="1.000000" fill-rule="evenodd"/>
		<path id="Vector" d="M160.88 196.94C160.88 197.73 160.25 198.37 159.46 198.37C158.67 198.37 158.04 197.73 158.04 196.94C158.04 196.16 158.67 195.52 159.46 195.52C160.25 195.52 160.88 196.16 160.88 196.94Z" fill="#747576" fill-opacity="1.000000" fill-rule="evenodd"/>
		<path id="Vector" d="M162.96 207.39C162.96 208.37 162.16 209.17 161.18 209.17C160.19 209.17 159.39 208.37 159.39 207.39C159.39 206.4 160.19 205.6 161.18 205.6C162.16 205.6 162.96 206.4 162.96 207.39Z" fill="#FFFFFF" fill-opacity="1.000000" fill-rule="evenodd"/>
		<path id="Vector" d="M199.7 219.58L129.52 219.58C129.44 219.58 129.36 219.55 129.31 219.5C129.25 219.44 129.22 219.36 129.22 219.28C129.22 219.21 129.25 219.13 129.31 219.07C129.36 219.02 129.44 218.99 129.52 218.99L199.7 218.99C199.78 218.99 199.85 219.02 199.91 219.07C199.96 219.13 200 219.21 200 219.28C200 219.36 199.96 219.44 199.91 219.5C199.85 219.55 199.78 219.58 199.7 219.58Z" fill="#747576" fill-opacity="1.000000" fill-rule="nonzero"/>
	</g>
</svg>
